<svg id="9637dce0-ac13-4312-a7e7-409df4094309" data-name="Layer 8" xmlns="http://www.w3.org/2000/svg" viewBox="0 0 966.1 966.1"><defs><style>.\34 26f5628-4cd5-46d4-8d03-0f09630f9c53,.b0005528-e366-4f6a-b7f7-c0f5848efc0f{stroke:#000;stroke-miterlimit:10;stroke-width:10px;}.\34 26f5628-4cd5-46d4-8d03-0f09630f9c53{fill:#fff;}</style></defs><title>oxygen-logo</title><path class="b0005528-e366-4f6a-b7f7-c0f5848efc0f" d="M510.73,947.7C270.1,947.7,75,752.63,75,512a433.66,433.66,0,0,1,70.38-237.52,189.49,189.49,0,0,1,1.42-68.64A478.22,478.22,0,0,0,577.58,987.4a189.62,189.62,0,0,1-66.4-39.7Z" transform="translate(-29.47 -30.7)"/><path class="b0005528-e366-4f6a-b7f7-c0f5848efc0f" d="M984,434.62A475.56,475.56,0,0,0,893.51,225,479.72,479.72,0,0,0,677.61,65a189.44,189.44,0,0,0-65.73,23.13C803.73,133.72,946.43,306.19,946.43,512c0,213.89-154.12,391.77-357.37,428.67A189.59,189.59,0,0,0,661.94,968,478.75,478.75,0,0,0,984,434.62Z" transform="translate(-29.47 -30.7)"/><path class="b0005528-e366-4f6a-b7f7-c0f5848efc0f" d="M510.73,76.3q11.92,0,23.69.64a190,190,0,0,1,59.93-34.25,483.35,483.35,0,0,0-143.2-3.08A475.75,475.75,0,0,0,207.49,145.66a189.49,189.49,0,0,0-13.57,67.25A434.47,434.47,0,0,1,510.73,76.3Z" transform="translate(-29.47 -30.7)"/><path class="426f5628-4cd5-46d4-8d03-0f09630f9c53" d="M510.73,947.7h.44c-3.68-3.39-7.25-6.92-10.66-10.62a188.53,188.53,0,0,1-33-49.6q-.94-2.06-1.85-4.15A190.7,190.7,0,0,1,457,858.74,350.12,350.12,0,0,1,227.13,717.19q-3.93-5.46-7.68-11.11t-7.25-11.39a353,353,0,0,1-17.28-31.88q-5.84-12.25-10.66-24.76A351.49,351.49,0,0,1,191,369.81a190.62,190.62,0,0,1-16.5-21.4c-1-1.54-2-3.08-3-4.64a188.48,188.48,0,0,1-23.08-54.58q-1.81-7.32-3-14.71A433.66,433.66,0,0,0,75,512C75,752.63,270.1,947.7,510.73,947.7Z" transform="translate(-29.47 -30.7)"/><path class="426f5628-4cd5-46d4-8d03-0f09630f9c53" d="M946.43,512c0-205.81-142.7-378.28-334.56-423.89A188.06,188.06,0,0,0,540,162q12.61,1,25.11,2.93A350.15,350.15,0,0,1,796.87,306.81q3.93,5.46,7.68,11.11t7.25,11.39a353,353,0,0,1,17.28,31.88q5.84,12.25,10.66,24.76a351.51,351.51,0,0,1-7.48,270q-5.54,12.36-12,24.32A349.36,349.36,0,0,1,801.3,711q-7.65,11.13-16.22,21.73A352.18,352.18,0,0,1,547.2,861.37q-13.54,1.35-27.09,1.64A190.7,190.7,0,0,0,533,885.62q1.26,1.9,2.56,3.76a188.16,188.16,0,0,0,53.54,51.3C792.31,903.77,946.43,725.89,946.43,512Z" transform="translate(-29.47 -30.7)"/><path class="426f5628-4cd5-46d4-8d03-0f09630f9c53" d="M209.25,290.56a190.64,190.64,0,0,0,12.37,24q8.12-12,17.3-23.29A352.18,352.18,0,0,1,476.8,162.63a188.37,188.37,0,0,1,45.51-74.55q5.76-5.79,12.11-11.14-11.77-.63-23.69-.64A434.47,434.47,0,0,0,193.91,212.91a188.15,188.15,0,0,0,13.24,72.56C207.83,287.17,208.52,288.87,209.25,290.56Z" transform="translate(-29.47 -30.7)"/><path class="426f5628-4cd5-46d4-8d03-0f09630f9c53" d="M706.63,372.63a168.29,168.29,0,0,1,71.09,28.28q-5.44-12.93-12.06-25.2l-.71-1.32q-1.13-2.06-2.29-4.1A288,288,0,0,0,736,331.37c-4.38-5.41-8.94-10.68-13.7-15.75q-6.54-7-13.53-13.5-2.9-2.71-5.87-5.33a286.64,286.64,0,0,0-116.17-62.4,289.6,289.6,0,0,1,2.77,140,162.66,162.66,0,0,1,18.21,13.12,168.59,168.59,0,0,1,73.51-16.75A170.58,170.58,0,0,1,706.63,372.63Z" transform="translate(-29.47 -30.7)"/><path class="426f5628-4cd5-46d4-8d03-0f09630f9c53" d="M317.37,651.37a168.28,168.28,0,0,1-70-27.53q5.2,12.35,11.48,24.1l.78,1.43q1.76,3.23,3.58,6.42A287.85,287.85,0,0,0,437.46,790a289.3,289.3,0,0,1-3.17-131.34,162.17,162.17,0,0,1-28.51-17.52,168.78,168.78,0,0,1-63,12.14A170.58,170.58,0,0,1,317.37,651.37Z" transform="translate(-29.47 -30.7)"/><path class="426f5628-4cd5-46d4-8d03-0f09630f9c53" d="M651.37,706.63A168.3,168.3,0,0,1,623,777.91a287.58,287.58,0,0,0,103-72.81c.71-.79,1.41-1.59,2.11-2.39a288.39,288.39,0,0,0,29.08-39c.41-.66.81-1.32,1.21-2,1.19-2,2.36-3.91,3.5-5.89a285.74,285.74,0,0,0,19.35-40.66q5-13,8.72-26.62a289.68,289.68,0,0,1-54.58,8.89q-9.25.61-18.52.63a290.1,290.1,0,0,1-38.9-2.57q-6-.8-12-1.86-8.19-1.45-16.31-3.36l-2.73-.67A162.09,162.09,0,0,1,636,606.82a168.56,168.56,0,0,1,17.22,74.44A170.58,170.58,0,0,1,651.37,706.63Z" transform="translate(-29.47 -30.7)"/><path class="b0005528-e366-4f6a-b7f7-c0f5848efc0f" d="M786.07,423.33q-3.72-11.43-8.36-22.42a168.29,168.29,0,0,0-71.09-28.28,170.58,170.58,0,0,0-25.37-1.89,168.59,168.59,0,0,0-73.51,16.75,162.82,162.82,0,0,1,40.31,49.83c2.49-.61,5-1.19,7.48-1.73,1.11-.24,2.23-.46,3.35-.69q12.73-2.59,25.62-4c1.19-.13,2.38-.28,3.57-.4a290,290,0,0,1,102.51,8.16Q788.55,430.9,786.07,423.33Z" transform="translate(-29.47 -30.7)"/><path class="b0005528-e366-4f6a-b7f7-c0f5848efc0f" d="M623,777.91a168.3,168.3,0,0,0,28.41-71.28,170.58,170.58,0,0,0,1.89-25.37A168.56,168.56,0,0,0,636,606.82a163.06,163.06,0,0,1-46.81,43.64,289.57,289.57,0,0,1-1.11,139.39A285.64,285.64,0,0,0,623,777.91Z" transform="translate(-29.47 -30.7)"/><path class="426f5628-4cd5-46d4-8d03-0f09630f9c53" d="M372.63,317.37A168.28,168.28,0,0,1,400,247.55a286.81,286.81,0,0,0-84.24,55Q308.87,309,302.38,316c-1.12,1.2-2.2,2.42-3.3,3.63l-1,1.11A288.6,288.6,0,0,0,268,360.86c-.73,1.18-1.46,2.36-2.18,3.55-1.17,1.95-2.33,3.9-3.46,5.88a286.77,286.77,0,0,0-28.08,68.92,289.56,289.56,0,0,1,62.92-9.5q5.5-.22,11-.24a290.09,290.09,0,0,1,40.22,2.74l0,.07.27,0q6.64.93,13.25,2.16a162.56,162.56,0,0,1,20.6-29.29,168.81,168.81,0,0,1-11.87-62.39A170.58,170.58,0,0,1,372.63,317.37Z" transform="translate(-29.47 -30.7)"/><path class="b0005528-e366-4f6a-b7f7-c0f5848efc0f" d="M400,247.55a168.28,168.28,0,0,0-27.4,69.83,170.58,170.58,0,0,0-1.89,25.37,168.81,168.81,0,0,0,11.87,62.39,162.68,162.68,0,0,1,50.87-38.75q-2.77-13.83-4.18-27.85a289.06,289.06,0,0,1,8.41-104A285.87,285.87,0,0,0,400,247.55Z" transform="translate(-29.47 -30.7)"/><path class="b0005528-e366-4f6a-b7f7-c0f5848efc0f" d="M247.37,623.84a168.28,168.28,0,0,0,70,27.53,170.58,170.58,0,0,0,25.37,1.89,168.78,168.78,0,0,0,63-12.14,162.92,162.92,0,0,1-42.16-48q-13.12,2.55-26.41,3.85c-1.51.15-3,.32-4.55.44q-12.39,1-24.83,1a289.63,289.63,0,0,1-52.39-4.88q-10.14-1.88-20.15-4.48,1.57,5.68,3.37,11.26Q242.51,612.32,247.37,623.84Z" transform="translate(-29.47 -30.7)"/><path class="b0005528-e366-4f6a-b7f7-c0f5848efc0f" d="M377.69,513.89A126.67,126.67,0,1,0,504.37,387.22,126.67,126.67,0,0,0,377.69,513.89Zm211.6,0A84.93,84.93,0,1,1,504.37,429,84.93,84.93,0,0,1,589.3,513.89Z" transform="translate(-29.47 -30.7)"/><circle class="426f5628-4cd5-46d4-8d03-0f09630f9c53" cx="474.9" cy="483.19" r="84.93"/></svg>