<svg xmlns="http://www.w3.org/2000/svg" viewBox="0 0 968.22 941.82"><defs><style>.cls-1{fill:#fff;}</style></defs><title>oxygen-logo</title><path class="cls-1" d="M660.09,51c86,50.45,143.8,143.88,143.8,250.81,0,160.48-130.1,290.58-290.58,290.58S222.72,462.3,222.72,301.81c0-106.93,57.77-200.36,143.8-250.81C170.91,113.17,29.19,296.25,29.19,512.45c0,157.13,74.87,296.77,190.87,385.21a485.13,485.13,0,0,0,43.84,29.79q18.51,11.15,38.07,20.66a480.78,480.78,0,0,0,150.9,44.7h0A106.9,106.9,0,1,0,286.53,858.61l-1.23.3A228.09,228.09,0,0,1,419.66,654.26a106.9,106.9,0,1,0,187.28,0A228.09,228.09,0,0,1,741.31,858.92l-1.23-.3a106.9,106.9,0,1,0-166.39,134.2h0a480.78,480.78,0,0,0,150.91-44.71q19.54-9.5,38.07-20.66a485.14,485.14,0,0,0,43.83-29.78c116-88.44,190.88-228.08,190.88-385.22C997.41,296.25,855.69,113.17,660.09,51Z" transform="translate(-29.19 -51)"/></svg>
