<svg id="2031750e-821e-4192-8004-0516edd76066" data-name="Layer 6" xmlns="http://www.w3.org/2000/svg" viewBox="0 0 972.1 972.1"><defs><style>.\33 bdff084-effd-41a0-9e8e-fea651107928{fill:#0071bc;}.\33 bdff084-effd-41a0-9e8e-fea651107928,.\35 d965c8b-1336-4cef-a22d-229505f99c99,.\37 ccd696a-d572-472d-8e6b-5b6ff6d3d3e6{stroke:#000;stroke-miterlimit:10;stroke-width:16px;}.\37 ccd696a-d572-472d-8e6b-5b6ff6d3d3e6{fill:#2e3192;}.\35 d965c8b-1336-4cef-a22d-229505f99c99{fill:#1b1464;}</style></defs><title>oxygen-logo-color</title><path class="3bdff084-effd-41a0-9e8e-fea651107928" d="M500.51,937.08a188.53,188.53,0,0,1-33-49.6q-.94-2.06-1.85-4.15A190.7,190.7,0,0,1,457,858.74,350.12,350.12,0,0,1,227.13,717.19q-3.93-5.46-7.68-11.11t-7.25-11.39a353,353,0,0,1-17.28-31.88q-5.84-12.25-10.66-24.76A351.49,351.49,0,0,1,191,369.81a190.62,190.62,0,0,1-16.5-21.4c-1-1.54-2-3.08-3-4.64a188.39,188.39,0,0,1-24.66-137.93A478.22,478.22,0,0,0,577.58,987.4,189.33,189.33,0,0,1,500.51,937.08Z" transform="translate(-26.47 -27.7)"/><path class="7ccd696a-d572-472d-8e6b-5b6ff6d3d3e6" d="M984,434.62A475.56,475.56,0,0,0,893.51,225,479.72,479.72,0,0,0,677.61,65,188.71,188.71,0,0,0,540,162q12.61,1,25.11,2.93A350.15,350.15,0,0,1,796.87,306.81q3.93,5.46,7.68,11.11t7.25,11.39a353,353,0,0,1,17.28,31.88q5.84,12.25,10.66,24.76a351.51,351.51,0,0,1-7.48,270q-5.54,12.36-12,24.32A349.36,349.36,0,0,1,801.3,711q-7.65,11.13-16.22,21.73A352.18,352.18,0,0,1,547.2,861.37q-13.54,1.35-27.09,1.64A190.7,190.7,0,0,0,533,885.62q1.26,1.9,2.56,3.76A188.55,188.55,0,0,0,661.94,968,478.75,478.75,0,0,0,984,434.62Z" transform="translate(-26.47 -27.7)"/><path class="5d965c8b-1336-4cef-a22d-229505f99c99" d="M209.25,290.56a190.64,190.64,0,0,0,12.37,24q8.12-12,17.3-23.29A352.18,352.18,0,0,1,476.8,162.63,189.38,189.38,0,0,1,594.36,42.69a483.35,483.35,0,0,0-143.2-3.08A475.75,475.75,0,0,0,207.49,145.66a188.46,188.46,0,0,0-.33,139.81C207.83,287.17,208.52,288.87,209.25,290.56Z" transform="translate(-26.47 -27.7)"/><path class="5d965c8b-1336-4cef-a22d-229505f99c99" d="M583.75,395.9a287.17,287.17,0,0,1-71.23,117.84h0a287.18,287.18,0,0,1-70.88-115.82c-.22-.67-.41-1.35-.62-2a289.71,289.71,0,0,1-3.3-161.37,286.86,286.86,0,0,0-121.92,68Q308.87,309,302.38,316c-1.12,1.2-2.2,2.42-3.3,3.63A288.68,288.68,0,0,0,268,360.86c-.73,1.18-1.46,2.36-2.18,3.55-1.17,1.95-2.33,3.9-3.46,5.88a286.77,286.77,0,0,0-28.08,68.92,289.56,289.56,0,0,1,62.92-9.5q5.5-.22,11-.24a290.09,290.09,0,0,1,40.22,2.74l0,.07.27,0q13.26,1.85,26.35,4.93a287.08,287.08,0,0,1,137.41,76.57h0a287,287,0,0,1-139.88,77.44q-2.73.62-5.48,1.19a289.54,289.54,0,0,1-34.5,5q-12.39,1-24.83,1a289.63,289.63,0,0,1-52.39-4.88q-10.14-1.88-20.15-4.48,1.57,5.68,3.37,11.26a285.84,285.84,0,0,0,20.19,47.62l.78,1.43q1.76,3.23,3.58,6.42A287.85,287.85,0,0,0,437.46,790a289.5,289.5,0,0,1,4.46-160.45l.17-.55a287.22,287.22,0,0,1,70.43-115.24h0a287.07,287.07,0,0,1,143-78.16c1.11-.24,2.23-.46,3.35-.69a289.9,289.9,0,0,1,131.7,3.75q-2-7.75-4.52-15.32a285.84,285.84,0,0,0-20.42-47.63l-.71-1.32q-1.13-2.06-2.29-4.1A288,288,0,0,0,736,331.37c-4.38-5.41-8.94-10.68-13.7-15.75q-6.54-7-13.53-13.5a286.84,286.84,0,0,0-122-67.73,289.6,289.6,0,0,1-3,161.42Z" transform="translate(-26.47 -27.7)"/><path class="5d965c8b-1336-4cef-a22d-229505f99c99" d="M583,628.28a289.52,289.52,0,0,1,5.15,161.56A285.82,285.82,0,0,0,654,762.73a289.21,289.21,0,0,0,103.09-99.06c.41-.66.81-1.32,1.21-2,1.19-2,2.36-3.91,3.5-5.89a285.74,285.74,0,0,0,19.35-40.66q5-13,8.72-26.62a289.68,289.68,0,0,1-54.58,8.89q-9.25.61-18.52.63a290.1,290.1,0,0,1-38.9-2.57q-6-.8-12-1.86-8.19-1.45-16.31-3.36a287.08,287.08,0,0,1-137.08-76.5,287.19,287.19,0,0,1,69.73,112.36C582.49,626.83,582.73,627.55,583,628.28Z" transform="translate(-26.47 -27.7)"/></svg>